<svg width="207" height="231" viewBox="0 0 207 231" fill="none" xmlns="http://www.w3.org/2000/svg">
<path fill-rule="evenodd" clip-rule="evenodd" d="M189.198 137.734C177.927 126.057 159.794 119.254 144.807 115.361C145.507 111.786 145.885 108.141 145.935 104.481C145.997 104.482 146.059 104.467 146.115 104.44C146.172 104.412 146.223 104.371 146.265 104.32C146.307 104.269 146.339 104.208 146.359 104.143C146.379 104.077 146.386 104.007 146.38 103.938C145.976 99.0181 144.765 90.1939 142.799 85.701C138.607 76.1029 131.507 69.8313 122.855 65.7079C116.086 62.497 108.365 62.2429 105.881 61.573C105.401 60.378 105.205 59.0655 105.311 57.7615C106.935 56.6771 108.233 55.0772 109.039 53.1661C109.844 51.2549 110.121 49.1192 109.834 47.0316C110.202 46.7825 110.548 46.4964 110.869 46.1769C110.938 46.2174 111.014 46.2385 111.092 46.2385C111.169 46.2385 111.246 46.2174 111.314 46.1769C112.353 45.6386 113.272 44.8496 114.005 43.8669C115.237 42.0304 114.388 41.245 114.575 38.808C114.592 38.2975 114.697 37.7955 114.885 37.3296C117.183 32.2129 117.628 29.4871 116.572 23.5966C116.137 21.1827 114.047 20.9401 113.074 19.8429C112.101 18.7456 112.308 16.4472 110.642 15.3268C108.204 13.6649 105.524 12.4922 102.724 11.8618C95.5926 10.4989 95.0751 15.8581 90.6557 15.7542C87.6542 15.6849 85.0977 13.9062 80.906 17.6715C79.6065 18.7778 78.5447 20.1938 77.798 21.8164C77.0513 23.4389 76.6386 25.2269 76.59 27.0501C76.6935 29.9722 78.7118 33.1254 78.7842 35.9436C78.8463 38.2536 77.9666 41.0025 79.2293 42.8736C79.7778 43.6821 80.5955 44.2942 80.8646 45.1836C81.4626 45.9795 82.1597 46.6757 82.9346 47.251C83.0047 47.2803 83.0818 47.2803 83.1519 47.251C84.1311 48.1595 85.2806 48.8108 86.5157 49.1568C87.4287 52.5135 89.2332 55.4818 91.6907 57.6691C91.358 58.831 90.9534 59.9656 90.4797 61.0648C89.7744 61.4329 89.0398 61.7268 88.2855 61.9426C80.1297 64.5183 72.8537 64.8186 63.5697 73.8276C57.0535 80.0015 52.4618 88.3246 50.4563 97.5975C49.8791 100.324 49.5668 103.112 49.5248 105.913C49.5248 107.184 49.5248 107.473 50.8806 107.496C51.0977 110.758 51.5546 113.996 52.2468 117.175C26.8169 125.826 1.61462 143.67 5.59937 173.007C9.11837 198.868 42.021 210.372 65.1119 215.038C87.0839 219.284 109.452 220.378 131.673 218.295C149.506 216.586 165.093 212.774 174.946 207.23C202.28 191.73 211.761 161.157 189.198 137.734ZM144.362 114.842C142.602 121.772 138.483 123.885 132.201 125.41C127.719 126.565 121.985 123.932 118.57 120.501C114.554 116.47 102.123 100.115 99.8258 97.7361C99.2876 95.6686 98.3043 85.0311 98.7183 82.7211C98.946 82.4439 98.9978 82.5247 99.1427 82.7211C99.536 83.2639 99.5049 83.3679 102.579 93.3817C102.613 93.4952 102.681 93.5923 102.771 93.6573C102.862 93.7223 102.969 93.7514 103.076 93.7398C111.77 92.7119 123.776 98.4522 125.98 101.963C126.037 102.023 126.103 102.069 126.176 102.099C126.249 102.129 126.327 102.142 126.405 102.137C129.437 102.137 142.509 102.552 145.49 104.447V104.527C145.388 107.996 145.011 111.448 144.362 114.842ZM170.475 153.95C174.748 153.864 178.986 154.818 182.895 156.745C193.918 162.716 185.71 172.569 170.475 172.557C170.357 172.548 170.24 172.589 170.149 172.673C170.057 172.756 169.997 172.875 169.982 173.006C169.966 173.137 169.995 173.269 170.064 173.377C170.132 173.484 170.235 173.559 170.351 173.585C174.739 174.971 177.596 177.212 178.631 179.718C179.459 181.82 178.879 184.072 176.757 186.071C171.437 191.118 160.197 191.938 152.683 189.536C152.577 189.503 152.463 189.512 152.362 189.561C152.261 189.61 152.177 189.696 152.125 189.805C152.074 189.914 152.057 190.039 152.077 190.16C152.098 190.281 152.154 190.391 152.238 190.471C154.308 192.469 154.929 194.721 154.101 196.812C150.768 205.232 129.686 206.93 121.778 199.457C121.707 199.388 121.62 199.343 121.527 199.328C121.434 199.313 121.339 199.328 121.253 199.372C121.168 199.416 121.096 199.487 121.046 199.576C120.995 199.665 120.969 199.768 120.971 199.873C120.971 207.958 102.186 212.335 91.1111 206.352C88.0061 204.689 86.0499 202.425 86.0499 199.873C86.0496 199.77 86.023 199.669 85.9734 199.583C85.9237 199.496 85.853 199.427 85.7695 199.383C85.686 199.34 85.5931 199.323 85.5016 199.336C85.4102 199.349 85.324 199.391 85.253 199.457C82.6551 201.906 78.3599 203.476 73.6506 204.077C69.4866 204.572 65.2766 204.207 61.2306 203.003C56.8422 201.617 53.9856 199.388 52.9506 196.87C52.1226 194.779 52.7022 192.527 54.824 190.517C54.9065 190.438 54.9623 190.33 54.9819 190.21C55.0015 190.091 54.9838 189.967 54.9317 189.86C54.8797 189.754 54.7964 189.67 54.6958 189.624C54.5952 189.577 54.4834 189.57 54.3789 189.605C46.9062 191.915 35.6558 191.199 30.2945 186.14C28.2245 184.13 27.5828 181.878 28.4108 179.764C29.4458 177.258 32.292 175.006 36.6908 173.62C36.8 173.594 36.8964 173.523 36.9609 173.421C37.0254 173.319 37.0533 173.194 37.0389 173.07C37.0246 172.947 36.9691 172.834 36.8835 172.753C36.7979 172.673 36.6885 172.632 36.5769 172.638C21.4452 172.638 12.9686 162.82 24.1569 156.757C28.0633 154.818 32.3023 153.856 36.5769 153.938C36.6698 153.943 36.7609 153.91 36.8326 153.843C36.9042 153.777 36.9511 153.684 36.964 153.581C36.977 153.478 36.9551 153.374 36.9026 153.288C36.8501 153.203 36.7709 153.142 36.6804 153.118C32.2506 151.732 29.3423 149.469 28.3383 146.928C27.4793 144.779 28.0589 142.469 30.222 140.413C33.5858 137.214 39.2162 135.897 43.677 135.632C42.049 138.191 41.2133 141.273 41.2965 144.41C41.4932 149.711 46.3473 154.031 50.3942 156.861C49.2738 159.323 48.9449 162.141 49.4627 164.842C50.8496 172.488 60.206 176.715 66.8714 178.91C66.2607 182.097 64.9049 200.496 67.6683 200.127C71.0114 199.688 72.1395 188.253 75.9483 186.14C76.4658 185.863 80.3471 184.754 86.2259 182.987C99.9868 184.653 113.87 184.625 127.626 182.906C130.193 183.483 131.766 183.841 132.128 183.992C136.082 185.816 137.872 197.159 141.226 197.355C143.751 197.505 141.888 182.594 141.474 179.787C153.501 175.421 163.116 164.588 154.929 153.996C158.873 150.993 163.809 146.408 164.244 141.106C164.354 139.275 164.107 137.439 163.52 135.724C167.929 136.001 173.476 137.318 176.799 140.471C178.931 142.504 179.521 144.779 178.672 146.904C177.637 149.422 174.78 151.663 170.392 153.049C170.314 153.093 170.249 153.163 170.207 153.249C170.165 153.335 170.147 153.434 170.156 153.531C170.165 153.629 170.2 153.721 170.257 153.796C170.314 153.871 170.39 153.924 170.475 153.95ZM59.1813 126.426C57.4881 126.512 55.8099 126.822 54.1823 127.35C55.0321 126.453 55.9944 125.698 57.0389 125.11C57.712 125.627 58.4297 126.068 59.1813 126.426ZM71.7152 174.578C73.5678 177.327 74.2406 179.36 77.3766 184.754C76.3416 185.077 75.7724 185.285 75.5861 185.389C71.5599 187.699 70.2972 199.041 67.5131 199.445C67.2647 199.445 67.0266 198.672 66.9645 198.394C65.9916 194.548 66.4781 182.363 67.1922 178.759C67.275 178.286 71.3426 174.89 71.7152 174.578ZM154.215 154.4C161.957 164.518 152.611 174.544 141.195 178.655C141.008 177.5 140.812 176.53 140.646 175.883C140.356 174.809 131.611 168.607 130.503 167.798C122.247 171.699 113.744 174.911 105.063 177.408C117.638 180.584 116.903 180.065 116.51 180.307C119.48 181 122.151 181.601 124.397 182.097C112.544 183.328 100.614 183.328 88.7616 182.097C107.164 176.542 138.359 166.17 154.215 154.4ZM137.8 173.874C138.681 174.508 139.506 175.235 140.263 176.045C141.164 179.51 142.664 194.017 141.36 196.454C141.298 196.581 141.236 196.673 141.143 196.673C138.307 196.477 136.237 184.627 132.159 183.183C134.24 180.18 135.968 176.9 137.841 173.874H137.8ZM138.7 124.694C129.334 128.159 73.1331 171.598 67.2854 177.916C60.9512 175.872 51.543 171.806 50.2182 164.576C49.7399 162.13 50.0247 159.575 51.0255 157.334C58.3533 162.254 68.486 166.285 76.6521 169.138C92.5187 155.659 94.4024 153.811 101.492 148.221C93.8849 143.266 76.766 132.294 68.6723 128.39C69.58 128.279 70.4771 128.078 71.3529 127.789V129.198L72.3258 129.718V127.408C75.035 126.336 77.506 124.627 79.5708 122.395C82.0962 119.6 88.2234 110.938 90.6143 107.588C90.8529 107.673 91.1078 107.682 91.3508 107.615C91.5937 107.547 91.8153 107.406 91.9908 107.207C92.656 106.457 93.227 105.61 93.6882 104.689C93.7995 104.489 93.8532 104.255 93.8421 104.02C93.831 103.785 93.7556 103.559 93.6261 103.372C97.704 97.6899 97.29 98.6023 97.4246 98.2212C97.7499 95.9664 97.9401 93.6898 97.9938 91.4067C98.1684 93.6849 98.4866 95.9466 98.946 98.175C98.9802 98.2778 99.0371 98.3692 99.1116 98.4407C100.674 100.011 108.613 110.314 114.026 116.782C117.483 120.917 119.812 123.712 124.666 125.525C126.786 126.372 129.048 126.688 131.29 126.449C131.29 127.142 131.362 127.766 131.383 128.297L132.325 127.812C132.325 127.731 132.325 126.738 132.242 126.265C135.212 125.549 138.514 124.428 140.853 122.326C142.547 122.536 144.222 122.899 145.863 123.412C143.439 123.412 141.033 123.861 138.742 124.74L138.7 124.694ZM92.9534 102.668C90.8834 100.878 90.6867 101.224 89.424 98.9835C89.757 98.7426 90.0423 98.4281 90.2624 98.0595C90.7826 96.7915 91.0001 95.3949 90.8937 94.0054C91.6349 93.9593 92.3778 93.9593 93.119 94.0054C93.2264 94.0096 93.3319 93.973 93.4184 93.9017C93.5048 93.8304 93.5671 93.7286 93.5951 93.6127C96.2861 82.9406 96.3482 82.0628 96.9174 82.7211C97.4556 85.0311 96.9795 95.7033 96.5552 97.8169C95.9652 98.4984 94.6404 100.312 92.9534 102.668ZM89.9829 94.3057C89.9662 94.9335 89.9074 95.5589 89.807 96.1768C88.7603 96.749 87.6087 97.0416 86.4432 97.0315C85.501 97.0551 84.5623 96.8949 83.6694 96.558C83.8036 95.7841 84.0784 95.0491 84.4767 94.3981C86.2155 93.3125 88.9376 92.4 89.9829 94.3057ZM78.7532 65.6155C82.3757 64.4605 88.6892 62.9706 90.5418 62.0581C91.1318 61.7694 91.3181 61.8618 92.6118 57.6576C92.6361 57.57 92.6352 57.4761 92.6092 57.3891C92.5832 57.3021 92.5335 57.2263 92.4669 57.1725C89.9726 55.0833 88.1384 52.1628 87.2298 48.8334C87.0435 48.0711 84.2594 48.2097 83.0898 45.7611C82.657 44.4432 82.7015 42.9889 83.214 41.707C83.3128 41.4806 83.4701 41.2925 83.6657 41.1669C83.8613 41.0413 84.0861 40.984 84.3111 41.0025C84.7907 41.0912 85.2387 41.3272 85.6049 41.6839C85.7808 41.8572 86.3397 41.6839 86.526 40.5289C86.8469 38.6232 85.9671 32.3515 86.8469 28.9789C87.6024 26.0568 89.7035 25.5139 92.0219 26.7498C95.5409 28.6324 96.0584 31.1734 101.772 32.5248C103.059 32.8231 104.369 32.9817 105.684 32.9983C106.222 32.9983 108.033 32.2707 108.603 32.34C109.006 33.1138 108.416 37.1217 108.913 38.2074C108.997 38.4183 109.131 38.5997 109.301 38.7319C109.471 38.8642 109.669 38.9424 109.876 38.9581C110.224 38.9563 110.571 38.9137 110.911 38.8311C111.004 38.8311 111.294 38.7502 111.356 38.8311C111.673 39.2098 111.919 39.6549 112.081 40.1406C112.242 40.6264 112.316 41.1431 112.298 41.6608C112.36 43.3818 110.776 45.403 110.735 45.6571C109.772 46.6851 109.42 46.5927 109.451 46.9276C110.176 55.0126 104.97 56.8375 104.887 57.5421C104.731 59.0484 104.945 60.5739 105.508 61.9542C105.932 62.9128 114.895 62.6703 122.699 66.4356C131.331 70.5936 138.224 76.8306 142.178 86.0706C144.031 90.3787 145.128 98.6485 145.562 103.396C142.333 102.968 142.996 101.79 126.612 101.317C126.057 100.585 125.416 99.9398 124.707 99.3993C124.67 97.4288 124.48 95.4655 124.138 93.5319C124.034 91.3143 122.741 85.5508 122.234 85.0658C122.068 84.8578 121.788 85.135 121.933 85.3545C122.037 85.3545 122.513 90.8523 124.159 98.9835C118.984 95.1027 110.279 92.0535 103.459 92.6194C100.395 82.7557 100.488 83.16 100.157 82.4554C99.8258 81.7509 99.4014 81.3004 98.7701 81.4506C98.5597 81.5005 98.3633 81.6064 98.1975 81.7592C98.0318 81.9121 97.9015 82.1073 97.8179 82.3284C97.721 82.1035 97.5758 81.9089 97.3953 81.7618C97.2147 81.6147 97.0043 81.5197 96.7829 81.4853C96.1515 81.4044 95.7479 81.9473 95.4477 82.6403C95.1476 83.3333 95.1993 83.2062 92.7671 93.0352C91.9037 93.0145 91.04 93.0453 90.1796 93.1276C88.5236 91.603 85.8222 92.8158 84.2076 94.1556C84.1197 94.2551 84.04 94.3634 83.9696 94.479C79.8507 95.7717 75.9563 97.8294 72.45 100.566C72.5949 99.6303 72.7502 98.7525 72.9572 97.1586C73.4426 94.1002 73.7881 91.0162 73.9922 87.9186C74.1267 86.4518 73.8059 86.0359 73.4333 87.6992C72.4574 92.0427 71.9638 96.5037 71.9636 100.982C71.2756 101.559 70.6656 102.243 70.1523 103.014C66.3642 103.384 55.269 104.297 51.75 106.433C51.3468 106.463 50.9423 106.463 50.5391 106.433C49.5972 90.4711 62.2242 70.7206 78.7532 65.6155ZM51.2843 107.253C53.4681 105.024 66.2918 104.089 69.2001 103.892C68.2333 104.628 67.4584 105.636 66.9542 106.814C66.9542 106.953 66.7782 107.288 66.9542 107.357C67.1301 107.427 67.8339 106.687 67.9271 106.595C71.1356 103.754 71.4254 100.577 81.0198 96.5118C81.7547 96.1999 82.5102 95.9112 83.2761 95.6455C83.1561 95.9306 83.0624 96.2286 82.9967 96.5349C82.9301 96.5908 82.8771 96.6646 82.8428 96.7494C82.8084 96.8342 82.7937 96.9272 82.8 97.02C82.8097 97.7647 83.0728 98.4775 83.536 99.0137C83.9992 99.5499 84.6278 99.8695 85.2944 99.9075C85.5635 99.9075 85.2944 99.7342 85.8843 101.513C86.0154 101.917 86.1854 102.305 86.3915 102.668C87.3176 104.338 88.4539 105.851 89.7656 107.161C87.5196 110.314 81.3407 119.057 78.9498 121.737C76.0001 125.04 71.1149 127.743 66.8921 127.616C65.0863 126.943 63.2051 126.554 61.3031 126.461C57.0596 125.075 54.4203 122.569 52.9196 117.671C52.0675 114.267 51.5197 110.778 51.2843 107.253ZM174.532 206.26C144.31 223.215 60.1232 223.435 23.6601 197.99C14.2313 191.395 7.91777 183.091 6.52052 172.846C2.56682 144.075 27.6552 126.53 52.4538 117.972C53.1759 120.65 54.6218 123.014 56.5938 124.74C55.2948 125.48 54.1353 126.492 53.1783 127.72C49.5954 129.052 46.4402 131.526 44.1014 134.835C39.3921 135.031 33.3581 136.371 29.7563 139.767C27.2826 142.077 26.6513 144.756 27.6863 147.193C28.7213 149.63 30.8948 151.605 34.4241 153.107C18.8163 154.089 12.8858 164.761 23.7843 170.674C27.044 172.333 30.5562 173.285 34.1343 173.481C30.7292 174.983 28.5039 177.073 27.6242 179.256C26.5892 181.739 27.2309 184.442 29.6942 186.833C35.0348 191.892 45.6125 192.804 52.9817 191.002C52.309 191.83 51.8659 192.857 51.7061 193.96C51.5463 195.063 51.6766 196.194 52.0812 197.216C53.1162 199.931 56.2212 202.437 60.9512 203.938C70.1523 206.849 80.4195 204.724 85.2012 200.866C86.7227 209.575 105.467 213.19 116.375 207.299C119.48 205.636 121.457 203.361 121.892 200.866C126.725 204.77 137.034 206.814 146.142 203.938C150.893 202.448 153.946 199.931 155.022 197.216C155.425 196.196 155.554 195.067 155.394 193.966C155.234 192.866 154.792 191.84 154.122 191.014C161.46 192.804 172.058 191.903 177.409 186.833C179.924 184.454 180.514 181.739 179.479 179.244C178.6 177.038 176.374 174.959 173.052 173.469C176.593 173.254 180.068 172.306 183.299 170.674C194.218 164.761 188.287 154.135 172.949 153.026C176.354 151.524 178.589 149.422 179.469 147.193C180.442 144.721 179.842 142.03 177.347 139.674C173.808 136.336 167.918 134.962 163.199 134.731C160.767 128.679 154.919 124.59 148.636 123.643C146.366 122.646 143.99 121.982 141.567 121.668C143.037 120.037 144.106 118.013 144.672 115.789C159.452 119.75 177.616 126.646 188.722 138.265C210.84 161.411 201.308 191.256 174.532 206.26Z" fill="black"/>
<path fill-rule="evenodd" clip-rule="evenodd" d="M74.0439 130.515C81.5684 134.442 90.5315 139.132 99.1841 145.53C100.157 146.246 101.254 146.893 102.289 147.621C110.817 140.788 119.815 134.717 129.199 129.464C118.238 128.656 85.46 130.019 74.0439 130.515ZM97.3935 47.6094C97.8657 47.9074 98.3971 48.0688 98.9395 48.0789C99.4818 48.089 100.018 47.9474 100.499 47.6671C100.595 47.5814 100.658 47.4572 100.674 47.3206C100.648 46.1716 100.555 45.0257 100.395 43.8902C100.207 42.2258 99.8388 40.593 99.298 39.0277C99.2842 38.971 99.2509 38.9228 99.2053 38.8935C99.1597 38.8643 99.1055 38.8565 99.0547 38.8718C99.0039 38.8871 98.9607 38.9243 98.9345 38.9752C98.9083 39.0261 98.9013 39.0865 98.915 39.1432C99.0599 40.1942 99.5981 45.796 99.7637 46.9625C99.0589 47.2863 98.2817 47.3589 97.5384 47.1704C97.5126 47.1598 97.4852 47.155 97.4577 47.1562C97.4302 47.1574 97.4032 47.1647 97.3782 47.1776C97.3532 47.1904 97.3307 47.2087 97.312 47.2312C97.2934 47.2538 97.2789 47.2802 97.2694 47.309C97.2598 47.3379 97.2555 47.3685 97.2566 47.3992C97.2577 47.4299 97.2642 47.46 97.2757 47.4879C97.2873 47.5158 97.3036 47.5409 97.3238 47.5617C97.344 47.5825 97.3677 47.5987 97.3935 47.6094ZM99.743 47.0896V47.2167C99.743 47.2167 99.7327 47.1011 99.743 47.0896ZM93.4709 42.6198C93.9135 42.4236 94.3178 42.1333 94.6611 41.765C94.6987 41.7314 94.7239 41.6836 94.7319 41.6306C94.74 41.5776 94.7303 41.5232 94.7048 41.4776C94.6793 41.4321 94.6397 41.3985 94.5935 41.3834C94.5473 41.3682 94.4977 41.3725 94.4542 41.3954C93.6723 41.6208 92.8704 41.7486 92.0633 41.7766C91.2534 41.7603 90.4463 41.6637 89.6518 41.4878C89.6292 41.4689 89.6032 41.4555 89.5756 41.4487C89.548 41.4419 89.5194 41.4419 89.4918 41.4485C89.4642 41.4552 89.4382 41.4684 89.4156 41.4873C89.3929 41.5062 89.3742 41.5303 89.3607 41.5579C89.3471 41.5856 89.3391 41.6162 89.3371 41.6477C89.3352 41.6792 89.3393 41.7107 89.3492 41.7402C89.3592 41.7698 89.3747 41.7965 89.3948 41.8188C89.4148 41.841 89.4389 41.8581 89.4655 41.869C89.8225 42.2086 90.2332 42.4711 90.6764 42.6428C91.5897 42.9417 92.5617 42.9337 93.4709 42.6198ZM102.103 41.0027C103.241 42.562 106.408 42.6775 107.143 40.7602C107.158 40.7367 107.169 40.7101 107.175 40.682C107.18 40.6539 107.181 40.6248 107.177 40.5964C107.172 40.568 107.163 40.5408 107.149 40.5164C107.136 40.492 107.118 40.4708 107.097 40.4541C107.076 40.4374 107.052 40.4256 107.027 40.4191C107.001 40.4127 106.975 40.4119 106.95 40.4167C106.924 40.4215 106.9 40.4319 106.878 40.4473C106.856 40.4626 106.837 40.4826 106.822 40.5061C106.521 40.7587 106.163 40.9144 105.787 40.9565C105.028 41.1182 104.249 41.1182 103.49 40.9565C103.097 40.9069 102.711 40.8021 102.341 40.6447C102.155 40.4252 101.906 40.8179 102.103 41.0027ZM96.4931 52.2871C97.336 52.6334 98.2413 52.7483 99.1323 52.6221C99.6901 52.6095 100.242 52.4964 100.768 52.2871C100.82 52.2871 100.87 52.264 100.907 52.2228C100.944 52.1817 100.964 52.1259 100.964 52.0677C100.964 52.0094 100.944 51.9536 100.907 51.9125C100.87 51.8713 100.82 51.8482 100.768 51.8482C100.247 51.6726 99.7073 51.5755 99.1634 51.5594C98.2713 51.4868 97.3746 51.5884 96.5138 51.8598C96.4854 51.8507 96.4555 51.8489 96.4264 51.8545C96.3973 51.8602 96.3697 51.873 96.3457 51.8921C96.3217 51.9113 96.3018 51.9362 96.2876 51.9651C96.2733 51.994 96.2651 52.026 96.2635 52.059C96.262 52.0919 96.267 52.1247 96.2784 52.1552C96.2897 52.1856 96.3071 52.2128 96.3291 52.2347C96.3512 52.2566 96.3774 52.2727 96.4058 52.2818C96.4341 52.2908 96.464 52.2927 96.4931 52.2871Z" fill="black"/>
</svg>
