<svg width="224" height="31" viewBox="0 0 224 31" fill="none" xmlns="http://www.w3.org/2000/svg">
<path d="M0.76 30V10H17.68L17.72 30H14.72L14.68 12.8H3.76V30H0.76ZM22.4244 19.8C22.4244 17.6933 22.8244 15.84 23.6244 14.24C24.451 12.64 25.5844 11.3867 27.0244 10.48C28.4644 9.54667 30.1177 9.08 31.9844 9.08C33.8244 9.08 35.451 9.54667 36.8644 10.48C38.2777 11.3867 39.3844 12.64 40.1844 14.24C40.9844 15.84 41.3844 17.6933 41.3844 19.8C41.3844 21.88 40.9844 23.7333 40.1844 25.36C39.411 26.96 38.331 28.2267 36.9444 29.16C35.5577 30.0667 33.9577 30.52 32.1444 30.52C30.2244 30.52 28.531 30.0667 27.0644 29.16C25.6244 28.2267 24.491 26.96 23.6644 25.36C22.8377 23.7333 22.4244 21.88 22.4244 19.8ZM32.1444 27.72C33.371 27.72 34.451 27.3867 35.3844 26.72C36.3177 26.0267 37.051 25.0933 37.5844 23.92C38.1177 22.72 38.3844 21.3467 38.3844 19.8C38.3844 18.2533 38.1044 16.8933 37.5444 15.72C37.011 14.52 36.2644 13.5867 35.3044 12.92C34.3444 12.2267 33.2377 11.88 31.9844 11.88C30.6777 11.88 29.5177 12.2267 28.5044 12.92C27.5177 13.5867 26.7444 14.52 26.1844 15.72C25.651 16.8933 25.3977 18.2533 25.4244 19.8C25.451 21.3467 25.7444 22.72 26.3044 23.92C26.891 25.0933 27.691 26.0267 28.7044 26.72C29.7177 27.3867 30.8644 27.72 32.1444 27.72ZM50.4887 30H47.6887L43.9287 10H46.9287L49.3687 25L53.0487 10H56.0887L59.8087 25.12L62.2487 10H65.2487L61.4487 30H58.6487L54.5687 13.52L50.4887 30ZM69.8731 30.52V27.92H84.8731V30.52H69.8731ZM104.817 27.2H108.097V30H104.257C101.751 30 99.8308 29.52 98.4975 28.56C97.1642 27.5733 96.4975 25.76 96.4975 23.12V13.56H89.9775V10.76H96.4975V4.52H99.4975V10.76H108.017V13.56H99.4975V22.72C99.4975 23.92 99.6442 24.84 99.9375 25.48C100.231 26.12 100.764 26.5733 101.537 26.84C102.311 27.08 103.404 27.2 104.817 27.2ZM118.042 10H131.722L131.762 30H128.762L128.722 12.8H118.042V30H115.042V3.72H112.802V0.919998H118.042V10ZM143.146 5.76V0.919998H147.986V5.76H143.146ZM147.986 27.2H156.906V30H135.986V27.2H144.986V11.88H137.946V9.08H147.986V27.2ZM160.251 30V10H177.171L177.211 30H174.211L174.171 12.8H163.251V30H160.251ZM187.275 25.48V30H184.275V0.919998H187.275V21.4L197.915 10H201.515L193.235 19L202.155 30H198.355L191.155 21.24L187.275 25.48ZM204.059 30V25.56H208.499V30H204.059ZM219.305 30V25.56H223.745V30H219.305Z" fill="#161B21"/>
</svg>
